<?xml version='1.0'?>
<svg xmlns="http://www.w3.org/2000/svg" xmlns:xlink="http://www.w3.org/1999/xlink" width="1356" height="135">
<defs>
  <filter id="ds" x="0" y="0">
    <feOffset in="SourceAlpha" dx="2" dy="2" />
    <feComponentTransfer><feFuncA type="linear" slope="0.2"/></feComponentTransfer>
    <feGaussianBlur result="blurOut" stdDeviation="1" />
    <feBlend in="SourceGraphic" in2="blurOut" mode="normal" />
  </filter>
  <pattern id="disordered-hatch" patternUnits="userSpaceOnUse" width="4" height="4">
    <path d="M-1,1 l2,-2 M0,4 l4,-4 M3,5 l2,-2" stroke="#000000" opacity="0.3" />
  </pattern>
</defs>
<line x1="116.221374" x2="116.221374" y1="43" y2="71" stroke="#BABDB6" stroke-width="2"/><a xlink:title="N30"><circle cx="116.221374" cy="43" r="4" fill="#FF5555" /></a><line x1="136.465649" x2="136.465649" y1="43" y2="71" stroke="#BABDB6" stroke-width="2"/><a xlink:title="P36"><circle cx="136.465649" cy="43" r="4" fill="#FF5555" /></a><line x1="153.335878" x2="153.335878" y1="43" y2="71" stroke="#BABDB6" stroke-width="2"/><a xlink:title="D41"><circle cx="153.335878" cy="43" r="4" fill="#FF5555" /></a><line x1="173.580153" x2="173.580153" y1="43" y2="71" stroke="#BABDB6" stroke-width="2"/><a xlink:title="P47S"><circle cx="173.580153" cy="43" r="4" fill="#FF5555" /></a><line x1="183.702290" x2="183.702290" y1="43" y2="71" stroke="#BABDB6" stroke-width="2"/><a xlink:title="I50T"><circle cx="183.702290" cy="43" r="4" fill="#FF5555" /></a><line x1="210.694656" x2="210.694656" y1="43" y2="71" stroke="#BABDB6" stroke-width="2"/><a xlink:title="P58R"><circle cx="210.694656" cy="43" r="4" fill="#FF5555" /></a><line x1="234.312977" x2="234.312977" y1="43" y2="71" stroke="#BABDB6" stroke-width="2"/><a xlink:title="R65"><circle cx="234.312977" cy="43" r="4" fill="#FF5555" /></a><line x1="257.931298" x2="257.931298" y1="31" y2="71" stroke="#BABDB6" stroke-width="2"/><a xlink:title="P72"><circle cx="257.931298" cy="31" r="4" fill="#FF5555" /></a><line x1="257.931298" x2="257.931298" y1="43" y2="71" stroke="#BABDB6" stroke-width="2"/><a xlink:title="P72R"><circle cx="257.931298" cy="43" r="4" fill="#FF5555" /></a><line x1="278.175573" x2="278.175573" y1="43" y2="71" stroke="#BABDB6" stroke-width="2"/><a xlink:title="A78"><circle cx="278.175573" cy="43" r="4" fill="#FF5555" /></a><line x1="291.671756" x2="291.671756" y1="43" y2="71" stroke="#BABDB6" stroke-width="2"/><a xlink:title="P82"><circle cx="291.671756" cy="43" r="4" fill="#FF5555" /></a><line x1="325.412214" x2="325.412214" y1="43" y2="71" stroke="#BABDB6" stroke-width="2"/><a xlink:title="S92"><circle cx="325.412214" cy="43" r="4" fill="#FF5555" /></a><line x1="355.778626" x2="355.778626" y1="43" y2="71" stroke="#BABDB6" stroke-width="2"/><a xlink:title="L101"><circle cx="355.778626" cy="43" r="4" fill="#FF5555" /></a><line x1="376.022901" x2="376.022901" y1="43" y2="71" stroke="#BABDB6" stroke-width="2"/><a xlink:title="Y107H"><circle cx="376.022901" cy="43" r="4" fill="#FF5555" /></a><line x1="396.267176" x2="396.267176" y1="43" y2="71" stroke="#BABDB6" stroke-width="2"/><a xlink:title="L113"><circle cx="396.267176" cy="43" r="4" fill="#FF5555" /></a><line x1="419.885496" x2="419.885496" y1="43" y2="71" stroke="#BABDB6" stroke-width="2"/><a xlink:title="R120"><circle cx="419.885496" cy="43" r="4" fill="#FF5555" /></a><line x1="430.007634" x2="430.007634" y1="43" y2="71" stroke="#BABDB6" stroke-width="2"/><a xlink:title="V123"><circle cx="430.007634" cy="43" r="4" fill="#FF5555" /></a><line x1="450.251908" x2="450.251908" y1="43" y2="71" stroke="#BABDB6" stroke-width="2"/><a xlink:title="P129"><circle cx="450.251908" cy="43" r="4" fill="#FF5555" /></a><line x1="517.732824" x2="517.732824" y1="43" y2="71" stroke="#BABDB6" stroke-width="2"/><a xlink:title="C149"><circle cx="517.732824" cy="43" r="4" fill="#FF5555" /></a><line x1="541.351145" x2="541.351145" y1="43" y2="71" stroke="#BABDB6" stroke-width="2"/><a xlink:title="R156H"><circle cx="541.351145" cy="43" r="4" fill="#FF5555" /></a><line x1="639.198473" x2="639.198473" y1="31" y2="71" stroke="#BABDB6" stroke-width="2"/><a xlink:title="S185N"><circle cx="639.198473" cy="31" r="4" fill="#FF5555" /></a><line x1="642.572519" x2="642.572519" y1="43" y2="71" stroke="#BABDB6" stroke-width="2"/><a xlink:title="D186E"><circle cx="642.572519" cy="43" r="4" fill="#FF5555" /></a><line x1="764.038168" x2="764.038168" y1="31" y2="71" stroke="#BABDB6" stroke-width="2"/><a xlink:title="P222L"><circle cx="764.038168" cy="31" r="4" fill="#FF5555" /></a><line x1="767.412214" x2="767.412214" y1="43" y2="71" stroke="#BABDB6" stroke-width="2"/><a xlink:title="P223H"><circle cx="767.412214" cy="43" r="4" fill="#FF5555" /></a><line x1="807.900763" x2="807.900763" y1="43" y2="71" stroke="#BABDB6" stroke-width="2"/><a xlink:title="N235S"><circle cx="807.900763" cy="43" r="4" fill="#FF5555" /></a><line x1="841.641221" x2="841.641221" y1="43" y2="71" stroke="#BABDB6" stroke-width="2"/><a xlink:title="G245S"><circle cx="841.641221" cy="43" r="4" fill="#FF5555" /></a><line x1="851.763359" x2="851.763359" y1="43" y2="71" stroke="#BABDB6" stroke-width="2"/><a xlink:title="R248Q"><circle cx="851.763359" cy="43" r="4" fill="#FF5555" /></a><line x1="966.480916" x2="966.480916" y1="19" y2="71" stroke="#BABDB6" stroke-width="2"/><a xlink:title="R282W"><circle cx="966.480916" cy="19" r="4" fill="#FF5555" /></a><line x1="969.854962" x2="969.854962" y1="31" y2="71" stroke="#BABDB6" stroke-width="2"/><a xlink:title="R283H"><circle cx="969.854962" cy="31" r="4" fill="#FF5555" /></a><line x1="969.854962" x2="969.854962" y1="43" y2="71" stroke="#BABDB6" stroke-width="2"/><a xlink:title="R283C"><circle cx="969.854962" cy="43" r="4" fill="#FF5555" /></a><line x1="993.473282" x2="993.473282" y1="31" y2="71" stroke="#BABDB6" stroke-width="2"/><a xlink:title="R290H"><circle cx="993.473282" cy="31" r="4" fill="#FF5555" /></a><line x1="996.847328" x2="996.847328" y1="43" y2="71" stroke="#BABDB6" stroke-width="2"/><a xlink:title="K291N"><circle cx="996.847328" cy="43" r="4" fill="#FF5555" /></a><line x1="1067.702290" x2="1067.702290" y1="43" y2="71" stroke="#BABDB6" stroke-width="2"/><a xlink:title="T312S"><circle cx="1067.702290" cy="43" r="4" fill="#FF5555" /></a><line x1="1145.305344" x2="1145.305344" y1="43" y2="71" stroke="#BABDB6" stroke-width="2"/><a xlink:title="R335C"><circle cx="1145.305344" cy="43" r="4" fill="#FF5555" /></a><line x1="1155.427481" x2="1155.427481" y1="43" y2="71" stroke="#BABDB6" stroke-width="2"/><a xlink:title="F338"><circle cx="1155.427481" cy="43" r="4" fill="#FF5555" /></a><line x1="1168.923664" x2="1168.923664" y1="31" y2="71" stroke="#BABDB6" stroke-width="2"/><a xlink:title="R342Q"><circle cx="1168.923664" cy="31" r="4" fill="#FF5555" /></a><line x1="1172.297710" x2="1172.297710" y1="43" y2="71" stroke="#BABDB6" stroke-width="2"/><a xlink:title="E343Q"><circle cx="1172.297710" cy="43" r="4" fill="#FF5555" /></a><line x1="1179.045802" x2="1179.045802" y1="31" y2="71" stroke="#BABDB6" stroke-width="2"/><a xlink:title="S345"><circle cx="1179.045802" cy="31" r="4" fill="#FF5555" /></a><line x1="1182.419847" x2="1182.419847" y1="43" y2="71" stroke="#BABDB6" stroke-width="2"/><a xlink:title="S346"><circle cx="1182.419847" cy="43" r="4" fill="#FF5555" /></a><line x1="1229.656489" x2="1229.656489" y1="43" y2="71" stroke="#BABDB6" stroke-width="2"/><a xlink:title="G360A"><circle cx="1229.656489" cy="43" r="4" fill="#FF5555" /></a><line x1="1307.259542" x2="1307.259542" y1="43" y2="71" stroke="#BABDB6" stroke-width="2"/><a xlink:title="L383"><circle cx="1307.259542" cy="43" r="4" fill="#FF5555" /></a><a xlink:title="P53_HUMAN, Cellular tumor antigen p53 (393aa)"><rect fill="#BABDB6" x="15" y="71" width="1326" height="14"/></a><a xlink:title="disorder"><rect fill="url(#disordered-hatch)" x="18.374046" y="71" width="10.122137" height="14"/></a>
<a xlink:title="disorder"><rect fill="url(#disordered-hatch)" x="99.351145" y="71" width="6.748092" height="14"/></a>
<a xlink:title="disorder"><rect fill="url(#disordered-hatch)" x="116.221374" y="71" width="3.374046" height="14"/></a>
<a xlink:title="disorder"><rect fill="url(#disordered-hatch)" x="318.664122" y="71" width="13.496183" height="14"/></a>
<a xlink:title="disorder"><rect fill="url(#disordered-hatch)" x="544.725191" y="71" width="13.496183" height="14"/></a>
<a xlink:title="disorder"><rect fill="url(#disordered-hatch)" x="602.083969" y="71" width="3.374046" height="14"/></a>
<a xlink:title="disorder"><rect fill="url(#disordered-hatch)" x="743.793893" y="71" width="3.374046" height="14"/></a>
<a xlink:title="disorder"><rect fill="url(#disordered-hatch)" x="993.473282" y="71" width="91.099237" height="14"/></a>
<a xlink:title="disorder"><rect fill="url(#disordered-hatch)" x="1229.656489" y="71" width="111.343511" height="14"/></a>
<a xlink:title="low_complexity"><rect fill="#C2DDFF" x="227.564885" y="69" width="87.725191" height="18" filter="url(#ds)"/></a>
<a xlink:title="disorder"><rect fill="url(#disordered-hatch)" x="126.343511" y="71" width="97.847328" height="14"/></a>
<g transform="translate(31.870229,66)"><a xlink:href="http://pfam.xfam.org/family/PF08563" xlink:title="P53 transactivation motif"><rect fill="#2dcf00" x="0" y="0" width="80.977099" height="24" filter="url(#ds)"/><text style="font-size:12px;font-family:sans-serif;fill:#ffffff;" text-anchor="middle" x="40.488550" y="16">P53_TAD</text></a></g>
<g transform="translate(335.534351,66)"><a xlink:href="http://pfam.xfam.org/family/PF00870" xlink:title="P53 DNA-binding domain"><rect fill="#ff5353" x="0" y="0" width="654.564885" height="24" filter="url(#ds)"/><text style="font-size:12px;font-family:sans-serif;fill:#ffffff;" text-anchor="middle" x="327.282443" y="16">P53 DNA-binding domain</text></a></g>
<g transform="translate(1087.946565,66)"><a xlink:href="http://pfam.xfam.org/family/PF07710" xlink:title="P53 tetramerisation motif"><rect fill="#5b5bff" x="0" y="0" width="138.335878" height="24" filter="url(#ds)"/><text style="font-size:12px;font-family:sans-serif;fill:#ffffff;" text-anchor="middle" x="69.167939" y="16">P53_tetramer</text></a></g>
<g class="axis">
<line x1="15" x2="1341" y1="100" y2="100" stroke="#AAAAAA" /><line x1="15" x2="15" y1="100" y2="105" stroke="#AAAAAA" /><line x1="31.870229" x2="31.870229" y1="100" y2="105" stroke="#AAAAAA" /><text style="font-size:10px;font-family:sans-serif;fill:#000000;" text-anchor="middle" x="31.870229" y="115">5</text><line x1="116.221374" x2="116.221374" y1="100" y2="105" stroke="#AAAAAA" /><text style="font-size:10px;font-family:sans-serif;fill:#000000;" text-anchor="middle" x="116.221374" y="115">30</text><line x1="136.465649" x2="136.465649" y1="100" y2="105" stroke="#AAAAAA" /><text style="font-size:10px;font-family:sans-serif;fill:#000000;" text-anchor="middle" x="136.465649" y="115">36</text><line x1="153.335878" x2="153.335878" y1="100" y2="105" stroke="#AAAAAA" /><text style="font-size:10px;font-family:sans-serif;fill:#000000;" text-anchor="middle" x="153.335878" y="115">41</text><line x1="173.580153" x2="173.580153" y1="100" y2="105" stroke="#AAAAAA" /><text style="font-size:10px;font-family:sans-serif;fill:#000000;" text-anchor="middle" x="173.580153" y="115">47</text><line x1="210.694656" x2="210.694656" y1="100" y2="105" stroke="#AAAAAA" /><text style="font-size:10px;font-family:sans-serif;fill:#000000;" text-anchor="middle" x="210.694656" y="115">58</text><line x1="234.312977" x2="234.312977" y1="100" y2="105" stroke="#AAAAAA" /><text style="font-size:10px;font-family:sans-serif;fill:#000000;" text-anchor="middle" x="234.312977" y="115">65</text><line x1="257.931298" x2="257.931298" y1="100" y2="105" stroke="#AAAAAA" /><text style="font-size:10px;font-family:sans-serif;fill:#000000;" text-anchor="middle" x="257.931298" y="115">72</text><line x1="278.175573" x2="278.175573" y1="100" y2="105" stroke="#AAAAAA" /><text style="font-size:10px;font-family:sans-serif;fill:#000000;" text-anchor="middle" x="278.175573" y="115">78</text><line x1="325.412214" x2="325.412214" y1="100" y2="105" stroke="#AAAAAA" /><text style="font-size:10px;font-family:sans-serif;fill:#000000;" text-anchor="middle" x="325.412214" y="115">92</text><line x1="355.778626" x2="355.778626" y1="100" y2="105" stroke="#AAAAAA" /><text style="font-size:10px;font-family:sans-serif;fill:#000000;" text-anchor="middle" x="355.778626" y="115">101</text><line x1="376.022901" x2="376.022901" y1="100" y2="105" stroke="#AAAAAA" /><text style="font-size:10px;font-family:sans-serif;fill:#000000;" text-anchor="middle" x="376.022901" y="115">107</text><line x1="396.267176" x2="396.267176" y1="100" y2="105" stroke="#AAAAAA" /><text style="font-size:10px;font-family:sans-serif;fill:#000000;" text-anchor="middle" x="396.267176" y="115">113</text><line x1="419.885496" x2="419.885496" y1="100" y2="105" stroke="#AAAAAA" /><text style="font-size:10px;font-family:sans-serif;fill:#000000;" text-anchor="middle" x="419.885496" y="115">120</text><line x1="450.251908" x2="450.251908" y1="100" y2="105" stroke="#AAAAAA" /><text style="font-size:10px;font-family:sans-serif;fill:#000000;" text-anchor="middle" x="450.251908" y="115">129</text><line x1="517.732824" x2="517.732824" y1="100" y2="105" stroke="#AAAAAA" /><text style="font-size:10px;font-family:sans-serif;fill:#000000;" text-anchor="middle" x="517.732824" y="115">149</text><line x1="541.351145" x2="541.351145" y1="100" y2="105" stroke="#AAAAAA" /><text style="font-size:10px;font-family:sans-serif;fill:#000000;" text-anchor="middle" x="541.351145" y="115">156</text><line x1="639.198473" x2="639.198473" y1="100" y2="105" stroke="#AAAAAA" /><text style="font-size:10px;font-family:sans-serif;fill:#000000;" text-anchor="middle" x="639.198473" y="115">185</text><line x1="764.038168" x2="764.038168" y1="100" y2="105" stroke="#AAAAAA" /><text style="font-size:10px;font-family:sans-serif;fill:#000000;" text-anchor="middle" x="764.038168" y="115">222</text><line x1="807.900763" x2="807.900763" y1="100" y2="105" stroke="#AAAAAA" /><text style="font-size:10px;font-family:sans-serif;fill:#000000;" text-anchor="middle" x="807.900763" y="115">235</text><line x1="841.641221" x2="841.641221" y1="100" y2="105" stroke="#AAAAAA" /><text style="font-size:10px;font-family:sans-serif;fill:#000000;" text-anchor="middle" x="841.641221" y="115">245</text><line x1="966.480916" x2="966.480916" y1="100" y2="105" stroke="#AAAAAA" /><text style="font-size:10px;font-family:sans-serif;fill:#000000;" text-anchor="middle" x="966.480916" y="115">282</text><line x1="993.473282" x2="993.473282" y1="100" y2="105" stroke="#AAAAAA" /><text style="font-size:10px;font-family:sans-serif;fill:#000000;" text-anchor="middle" x="993.473282" y="115">290</text><line x1="1067.702290" x2="1067.702290" y1="100" y2="105" stroke="#AAAAAA" /><text style="font-size:10px;font-family:sans-serif;fill:#000000;" text-anchor="middle" x="1067.702290" y="115">312</text><line x1="1087.946565" x2="1087.946565" y1="100" y2="105" stroke="#AAAAAA" /><text style="font-size:10px;font-family:sans-serif;fill:#000000;" text-anchor="middle" x="1087.946565" y="115">318</text><line x1="1145.305344" x2="1145.305344" y1="100" y2="105" stroke="#AAAAAA" /><text style="font-size:10px;font-family:sans-serif;fill:#000000;" text-anchor="middle" x="1145.305344" y="115">335</text><line x1="1168.923664" x2="1168.923664" y1="100" y2="105" stroke="#AAAAAA" /><text style="font-size:10px;font-family:sans-serif;fill:#000000;" text-anchor="middle" x="1168.923664" y="115">342</text><line x1="1229.656489" x2="1229.656489" y1="100" y2="105" stroke="#AAAAAA" /><text style="font-size:10px;font-family:sans-serif;fill:#000000;" text-anchor="middle" x="1229.656489" y="115">360</text><line x1="1307.259542" x2="1307.259542" y1="100" y2="105" stroke="#AAAAAA" /><text style="font-size:10px;font-family:sans-serif;fill:#000000;" text-anchor="middle" x="1307.259542" y="115">383</text><line x1="1341.000000" x2="1341.000000" y1="100" y2="105" stroke="#AAAAAA" /><text style="font-size:10px;font-family:sans-serif;fill:#000000;" text-anchor="middle" x="1341.000000" y="115">393</text></g>
</svg>
